{
  "title": "Batman Vs Superman Dawn of Justice - 2016 - HDRip - x264 - AAC -",
  "uid": 15154211,
  "size": 833582154,
  "categoryP": "video",
  "categoryS": "movies",
  "magnet": "?xt=urn:btih:9627e5f99f581b49f5d876ca0e0165364faa39b7&amp;dn=Batman+Vs+Superman+Dawn+of+Justice+-+2016+-+HDRip+-+x264+-+AAC+-&amp;tr=udp%3A%2F%2Ftracker.leechers-paradise.org%3A6969&amp;tr=udp%3A%2F%2Fzer0day.ch%3A1337&amp;tr=udp%3A%2F%2Fopen.demonii.com%3A1337&amp;tr=udp%3A%2F%2Ftracker.coppersurfer.tk%3A6969&amp;tr=udp%3A%2F%2Fexodus.desync.com%3A6969",
  "seeders": 84,
  "leechers": 10,
  "uploader": "makintos13",
  "files": 1,
  "time": 1467278299,
  "description": "screens:\r\n \nhttps://imgmak.com/TBA\r\n \nhttps://imgmak.com/TBD\r\n \nhttps://imgmak.com/TBf\r\n \nhttps://imgmak.com/TBE\r\n \nhttps://imgmak.com/TBh\r\n \nhttps://imgmak.com/TBl\r\n \nhttps://imgmak.com/TBV\r\n \nhttps://imgmak.com/TBe\r\n \nhttps://imgmak.com/TBg\r\n\r\n\r\n\r\n\r\nFormat : Matroska\r\nFormat version : Version 4 / Version 2\r\nFile size : 795 MiB\r\nDuration : 2h 31mn\r\nOverall bit rate : 734 Kbps\r\n\r\nVideo\r\nID : 3\r\nFormat : AVC\r\nFormat/Info : Advanced Video Codec\r\nFormat profile :   \r\nFormat settings, CABAC : Yes\r\nFormat settings, ReFrames : 4 frames\r\nCodec ID : V_MPEG4/ISO/AVC\r\nDuration : 2h 31mn\r\nBit rate : 606 Kbps\r\nWidth : 720 pixels\r\nHeight : 304 pixels\r\nDisplay aspect ratio : 2.35:1\r\nFrame rate mode : Constant\r\nFrame rate : 24.000 fps\r\nColor space : YUV\r\nChroma subsampling : 4:2:0\r\nBit depth : 8 bits\r\nScan type : Progressive\r\nBits/(Pixel*Frame) : 0.115\r\nStream size : 657 MiB (83%)\r\nDefault : Yes\r\nForced : No\r\n\r\nAudio #1\r\nID : 1\r\nFormat : AAC\r\nFormat/Info : Advanced Audio Codec\r\nFormat profile : LC\r\nCodec ID : A_AAC\r\nDuration : 2h 31mn\r\nBit rate : 60.8 Kbps\r\nChannel(s) : 2 channels\r\nChannel positions : Front: L R\r\nSampling rate : 48.0 KHz\r\nFrame rate : 46.875 fps (1024 spf)\r\nCompression mode : Lossy\r\nDelay relative to video : 62ms\r\nStream size : 65.9 MiB (8%)\r\nTitle : Hindi\r\nDefault : Yes\r\nForced : No\r\n\r\nAudio #2\r\nID : 2\r\nFormat : AAC\r\nFormat/Info : Advanced Audio Codec\r\nFormat profile : LC\r\nCodec ID : A_AAC\r\nDuration : 2h 31mn\r\nBit rate : 64.1 Kbps\r\nChannel(s) : 2 channels\r\nChannel positions : Front: L R\r\nSampling rate : 48.0 KHz\r\nFrame rate : 46.875 fps (1024 spf)\r\nCompression mode : Lossy\r\nDelay relative to video : 62ms\r\nStream size : 69.4 MiB (9%)\r\nTitle : English (Makintos13)\r\nDefault : No\r\nForced : No",
  "parsed": {
    "xt": "urn:btih:9627e5f99f581b49f5d876ca0e0165364faa39b7",
    "dn": "Batman Vs Superman Dawn of Justice - 2016 - HDRip - x264 - AAC -",
    "tr": [
      "udp://exodus.desync.com:6969",
      "udp://open.demonii.com:1337",
      "udp://tracker.coppersurfer.tk:6969",
      "udp://tracker.leechers-paradise.org:6969",
      "udp://zer0day.ch:1337"
    ],
    "infoHash": "9627e5f99f581b49f5d876ca0e0165364faa39b7",
    "infoHashBuffer": {
      "type": "Buffer",
      "data": [
        150,
        39,
        229,
        249,
        159,
        88,
        27,
        73,
        245,
        216,
        118,
        202,
        14,
        1,
        101,
        54,
        79,
        170,
        57,
        183
      ]
    },
    "name": "Batman Vs Superman Dawn of Justice - 2016 - HDRip - x264 - AAC -",
    "announce": [
      "udp://exodus.desync.com:6969",
      "udp://open.demonii.com:1337",
      "udp://tracker.coppersurfer.tk:6969",
      "udp://tracker.leechers-paradise.org:6969",
      "udp://zer0day.ch:1337"
    ],
    "urlList": []
  },
  "previous": 94,
  "peers": 275,
  "last_updated": "2016-12-25T08:25:11.492Z"
}